<svg xmlns="http://www.w3.org/2000/svg" viewBox="0 0 820 620" width="820" height="620" font-family="Arial, sans-serif" font-size="10">
  <rect width="820" height="620" fill="white"/>

  <!-- Style -->
  <style>
    .pipe { stroke: black; stroke-width: 2; fill: none; }
    .node { fill: white; stroke: black; stroke-width: 1.5; }
    .label { font-size: 9px; text-anchor: middle; dominant-baseline: middle; }
    .pipe-label { font-size: 9px; text-anchor: middle; fill: #333; }
  </style>

  <!-- 
    Node positions (cx, cy):
    N1: 590, 30  (reservoir)
    N2: 590, 90
    N3: 590, 160
    N4: 650, 160
    N5: 710, 160
    N6: 770, 160
    N7: 770, 210
    N8: 770, 260
    N9: 770, 350
    N10: 710, 350
    N11: 710, 400
    N12: 710, 460
    N13: 640, 460
    N14: 650, 350
    N15: 590, 350
    N16: 530, 350
    N17: 530, 290
    N18: 530, 240
    N19: 530, 200
    N20: 470, 160
    N21: 470, 120
    N22: 470, 70
    N23: 350, 160
    N24: 350, 250
    N25: 350, 350
    N26: 410, 350
    N27: 470, 350
    N28: 280, 160
    N29: 140, 160
    N30: 140, 255
    N31: 140, 350
    N32: 220, 350
  -->

  <!-- Pipes / Edges -->
  <!-- P1: N1-N2 -->
  <line class="pipe" x1="590" y1="55" x2="590" y2="78"/>
  <text class="pipe-label" x="597" y="67">P1</text>

  <!-- P2: N2-N3 -->
  <line class="pipe" x1="590" y1="102" x2="590" y2="148"/>
  <text class="pipe-label" x="597" y="125">P2</text>

  <!-- P3: N3-N4 -->
  <line class="pipe" x1="602" y1="160" x2="638" y2="160"/>
  <text class="pipe-label" x="620" y="153">P3</text>

  <!-- P4: N4-N5 -->
  <line class="pipe" x1="662" y1="160" x2="698" y2="160"/>
  <text class="pipe-label" x="680" y="153">P4</text>

  <!-- P5: N5-N6 -->
  <line class="pipe" x1="722" y1="160" x2="758" y2="160"/>
  <text class="pipe-label" x="740" y="153">P5</text>

  <!-- P6: N6-N7 -->
  <line class="pipe" x1="770" y1="172" x2="770" y2="198"/>
  <text class="pipe-label" x="778" y="185">P6</text>

  <!-- P7: N7-N8 -->
  <line class="pipe" x1="770" y1="222" x2="770" y2="248"/>
  <text class="pipe-label" x="778" y="235">P7</text>

  <!-- P8: N8-N9 -->
  <line class="pipe" x1="770" y1="272" x2="770" y2="338"/>
  <text class="pipe-label" x="778" y="305">P8</text>

  <!-- P9: N9-N10 -->
  <line class="pipe" x1="758" y1="350" x2="722" y2="350"/>
  <text class="pipe-label" x="740" y="343">P9</text>

  <!-- P10: N10-N11 -->
  <line class="pipe" x1="710" y1="362" x2="710" y2="388"/>
  <text class="pipe-label" x="718" y="375">P10</text>

  <!-- P11: N11-N12 -->
  <line class="pipe" x1="710" y1="412" x2="710" y2="448"/>
  <text class="pipe-label" x="718" y="430">P11</text>

  <!-- P12: N12-N13 -->
  <line class="pipe" x1="698" y1="460" x2="652" y2="460"/>
  <text class="pipe-label" x="675" y="453">P12</text>

  <!-- P13: N10-N14 -->
  <line class="pipe" x1="698" y1="350" x2="662" y2="350"/>
  <text class="pipe-label" x="680" y="343">P13</text>

  <!-- P14: N14-N15 -->
  <line class="pipe" x1="638" y1="350" x2="602" y2="350"/>
  <text class="pipe-label" x="620" y="343">P14</text>

  <!-- P15: N15-N16 -->
  <line class="pipe" x1="578" y1="350" x2="542" y2="350"/>
  <text class="pipe-label" x="560" y="343">P15</text>

  <!-- P16: N16-N17 -->
  <line class="pipe" x1="530" y1="338" x2="530" y2="302"/>
  <text class="pipe-label" x="538" y="320">P16</text>

  <!-- P17: N17-N18 -->
  <line class="pipe" x1="530" y1="278" x2="530" y2="252"/>
  <text class="pipe-label" x="538" y="265">P17</text>

  <!-- P18: N18-N19 -->
  <line class="pipe" x1="530" y1="228" x2="530" y2="212"/>
  <text class="pipe-label" x="538" y="220">P18</text>

  <!-- P19: N3-N19 -->
  <line class="pipe" x1="590" y1="172" x2="530" y2="198"/>
  <text class="pipe-label" x="563" y="182">P19</text>

  <!-- P20: N20-N3 -->
  <line class="pipe" x1="482" y1="160" x2="578" y2="160"/>
  <text class="pipe-label" x="530" y="153">P20</text>

  <!-- P21: N21-N20 -->
  <line class="pipe" x1="470" y1="132" x2="470" y2="148"/>
  <text class="pipe-label" x="478" y="140">P21</text>

  <!-- P22: N22-N21 -->
  <line class="pipe" x1="470" y1="82" x2="470" y2="108"/>
  <text class="pipe-label" x="478" y="95">P22</text>

  <!-- P23: N23-N20 -->
  <line class="pipe" x1="362" y1="160" x2="458" y2="160"/>
  <text class="pipe-label" x="410" y="153">P23</text>

  <!-- P24: N23-N24 -->
  <line class="pipe" x1="350" y1="172" x2="350" y2="238"/>
  <text class="pipe-label" x="358" y="205">P24</text>

  <!-- P25: N24-N25 -->
  <line class="pipe" x1="350" y1="262" x2="350" y2="338"/>
  <text class="pipe-label" x="358" y="300">P25</text>

  <!-- P26: N25-N26 -->
  <line class="pipe" x1="362" y1="350" x2="398" y2="350"/>
  <text class="pipe-label" x="380" y="343">P26</text>

  <!-- P27: N26-N27 -->
  <line class="pipe" x1="422" y1="350" x2="458" y2="350"/>
  <text class="pipe-label" x="440" y="343">P27</text>

  <!-- P28: N27-N16 -->
  <line class="pipe" x1="482" y1="350" x2="518" y2="350"/>
  <text class="pipe-label" x="500" y="343">P28</text>

  <!-- P29: N28-N23 -->
  <line class="pipe" x1="292" y1="160" x2="338" y2="160"/>
  <text class="pipe-label" x="315" y="153">P29</text>

  <!-- P30: N29-N28 -->
  <line class="pipe" x1="152" y1="160" x2="268" y2="160"/>
  <text class="pipe-label" x="210" y="153">P30</text>

  <!-- P31: N29-N30 -->
  <line class="pipe" x1="140" y1="172" x2="140" y2="243"/>
  <text class="pipe-label" x="132" y="207">P31</text>

  <!-- P32: N30-N31 -->
  <line class="pipe" x1="140" y1="267" x2="140" y2="338"/>
  <text class="pipe-label" x="132" y="302">P32</text>

  <!-- P33: N31-N32 -->
  <line class="pipe" x1="152" y1="350" x2="208" y2="350"/>
  <text class="pipe-label" x="180" y="343">P33</text>

  <!-- P34: N32-N25 -->
  <line class="pipe" x1="232" y1="350" x2="338" y2="350"/>
  <text class="pipe-label" x="285" y="343">P34</text>

  <!-- Reservoir N1 (tank symbol) -->
  <rect x="567" y="10" width="46" height="22" fill="white" stroke="black" stroke-width="1.5"/>
  <line x1="567" y1="32" x2="613" y2="32" stroke="black" stroke-width="2"/>
  <line x1="572" y1="35" x2="608" y2="35" stroke="black" stroke-width="1"/>
  <!-- Water lines -->
  <line x1="575" y1="25" x2="609" y2="25" stroke="black" stroke-width="1" stroke-dasharray="2,2"/>
  <circle cx="590" cy="30" r="0" fill="none"/>
  <text class="label" x="590" y="20" font-size="9">N1</text>

  <!-- Nodes -->
  <!-- N2 -->
  <circle class="node" cx="590" cy="90" r="12"/>
  <text class="label" x="590" y="90">N2</text>

  <!-- N3 -->
  <circle class="node" cx="590" cy="160" r="12"/>
  <text class="label" x="590" y="160">N3</text>

  <!-- N4 -->
  <circle class="node" cx="650" cy="160" r="12"/>
  <text class="label" x="650" y="160">N4</text>

  <!-- N5 -->
  <circle class="node" cx="710" cy="160" r="12"/>
  <text class="label" x="710" y="160">N5</text>

  <!-- N6 -->
  <circle class="node" cx="770" cy="160" r="12"/>
  <text class="label" x="770" y="160">N6</text>

  <!-- N7 -->
  <circle class="node" cx="770" cy="210" r="12"/>
  <text class="label" x="770" y="210">N7</text>

  <!-- N8 -->
  <circle class="node" cx="770" cy="260" r="12"/>
  <text class="label" x="770" y="260">N8</text>

  <!-- N9 -->
  <circle class="node" cx="770" cy="350" r="12"/>
  <text class="label" x="770" y="350">N9</text>

  <!-- N10 -->
  <circle class="node" cx="710" cy="350" r="12"/>
  <text class="label" x="710" y="350">N10</text>

  <!-- N11 -->
  <circle class="node" cx="710" cy="400" r="12"/>
  <text class="label" x="710" y="400">N11</text>

  <!-- N12 -->
  <circle class="node" cx="710" cy="460" r="12"/>
  <text class="label" x="710" y="460">N12</text>

  <!-- N13 -->
  <circle class="node" cx="640" cy="460" r="12"/>
  <text class="label" x="640" y="460">N13</text>

  <!-- N14 -->
  <circle class="node" cx="650" cy="350" r="12"/>
  <text class="label" x="650" y="350">N14</text>

  <!-- N15 -->
  <circle class="node" cx="590" cy="350" r="12"/>
  <text class="label" x="590" y="350">N15</text>

  <!-- N16 -->
  <circle class="node" cx="530" cy="350" r="12"/>
  <text class="label" x="530" y="350">N16</text>

  <!-- N17 -->
  <circle class="node" cx="530" cy="290" r="12"/>
  <text class="label" x="530" y="290">N17</text>

  <!-- N18 -->
  <circle class="node" cx="530" cy="240" r="12"/>
  <text class="label" x="530" y="240">N18</text>

  <!-- N19 -->
  <circle class="node" cx="530" cy="200" r="12"/>
  <text class="label" x="530" y="200">N19</text>

  <!-- N20 -->
  <circle class="node" cx="470" cy="160" r="12"/>
  <text class="label" x="470" y="160">N20</text>

  <!-- N21 -->
  <circle class="node" cx="470" cy="120" r="12"/>
  <text class="label" x="470" y="120">N21</text>

  <!-- N22 -->
  <circle class="node" cx="470" cy="70" r="12"/>
  <text class="label" x="470" y="70">N22</text>

  <!-- N23 -->
  <circle class="node" cx="350" cy="160" r="12"/>
  <text class="label" x="350" y="160">N23</text>

  <!-- N24 -->
  <circle class="node" cx="350" cy="250" r="12"/>
  <text class="label" x="350" y="250">N24</text>

  <!-- N25 -->
  <circle class="node" cx="350" cy="350" r="12"/>
  <text class="label" x="350" y="350">N25</text>

  <!-- N26 -->
  <circle class="node" cx="410" cy="350" r="12"/>
  <text class="label" x="410" y="350">N26</text>

  <!-- N27 -->
  <circle class="node" cx="470" cy="350" r="12"/>
  <text class="label" x="470" y="350">N27</text>

  <!-- N28 -->
  <circle class="node" cx="280" cy="160" r="12"/>
  <text class="label" x="280" y="160">N28</text>

  <!-- N29 -->
  <circle class="node" cx="140" cy="160" r="12"/>
  <text class="label" x="140" y="160">N29</text>

  <!-- N30 -->
  <circle class="node" cx="140" cy="255" r="12"/>
  <text class="label" x="140" y="255">N30</text>

  <!-- N31 -->
  <circle class="node" cx="140" cy="350" r="12"/>
  <text class="label" x="140" y="350">N31</text>

  <!-- N32 -->
  <circle class="node" cx="220" cy="350" r="12"/>
  <text class="label" x="220" y="350">N32</text>

</svg>
